<svg width="17" height="17" viewBox="0 0 17 17" fill="none" xmlns="http://www.w3.org/2000/svg">
<path d="M15.4545 1.61616H13.1364V0H11.5909V4.84849H13.1364V3.23233H15.4545V15.3535H1.54545V3.23233H3.09091V1.61616H1.54545C0.692364 1.61616 0 2.3402 0 3.23233V15.3535C0 16.2457 0.692364 16.9697 1.54545 16.9697H15.4545C16.3076 16.9697 17 16.2457 17 15.3535V3.23233C17 2.3402 16.3076 1.61616 15.4545 1.61616Z" fill="#005AA5"/>
<path d="M5.40909 3.23233H10.8182V1.61616H5.40909V0H3.86364V4.84849H5.40909V3.23233Z" fill="red"/>
<path d="M3.09091 6.46465H6.18182V9.69698H3.09091V6.46465Z" fill="#005AA5"/>
<path d="M10.0455 6.46465H6.95455V9.69698H10.0455V6.46465Z" fill="#005AA5"/>
<path d="M13.9091 9.69698H10.8182V6.46465H13.9091V9.69698Z" fill="#005AA5"/>
<path d="M3.09091 13.7374H6.18182V10.5051H3.09091V13.7374Z" fill="#005AA5"/>
<path d="M10.0455 13.7374H6.95455V10.5051H10.0455V13.7374Z" fill="#005AA5"/>
</svg>
